<?xml version="1.0" encoding="UTF-8"?><svg width="188" height="43" viewBox="0 0 188 43" xmlns="http://www.w3.org/2000/svg"><g id="Page-1" fill="none" fill-rule="evenodd"><g id="Group"><g id="Logo/Full-logo-no-strap"><g id="Group-4-Copy-6"><g id="Group-3" transform="translate(39.982)" fill="#FD7E45"><path d="M.014 23.729h6.319c.061 1.221.526 2.137 1.394 2.746.93.611 2.167.916 3.716.916 1.115 0 2.076-.213 2.881-.641.743-.426 1.115-1.007 1.115-1.74 0-1.099-1.3-1.923-3.902-2.472-1.116-.183-1.951-.366-2.51-.55-3.283-.792-5.48-1.74-6.596-2.838-1.24-1.099-1.859-2.564-1.859-4.395 0-2.319.898-4.242 2.695-5.769 1.858-1.402 4.274-2.105 7.248-2.105 3.22 0 5.79.703 7.712 2.105 1.795 1.527 2.755 3.512 2.881 5.953h-3.996c-1.177 0-2.076-.519-2.695-1.557a147.48 147.48 0 0 1-.743-.733c-.744-.549-1.765-.824-3.066-.824-1.24 0-2.17.183-2.788.55-.557.366-.836.915-.836 1.647 0 .978 1.61 1.802 4.831 2.473.372.123.697.214.976.275.279.06.542.091.79.091 3.16.795 5.357 1.71 6.597 2.747 1.176 1.099 1.766 2.564 1.766 4.395 0 2.686-.991 4.76-2.974 6.226-1.858 1.343-4.646 2.015-8.362 2.015-3.531 0-6.165-.702-7.899-2.107C.911 28.735.014 26.69.014 24.003v-.274z" id="Fill-1"/><path d="M30.98 19.7c0 2.197.465 3.937 1.394 5.219.93 1.282 2.198 1.922 3.81 1.922 1.734 0 3.066-.64 3.995-1.922.93-1.16 1.394-2.9 1.394-5.22 0-2.38-.434-4.211-1.3-5.493-.93-1.282-2.23-1.923-3.903-1.923-1.736 0-3.066.64-3.996 1.923-.93 1.282-1.394 3.113-1.394 5.494m10.593 17.946V28.58c-.806 1.282-1.797 2.229-2.974 2.838-1.24.55-2.601.825-4.087.825-2.974 0-5.36-1.16-7.156-3.48-1.797-2.257-2.695-5.37-2.695-9.34 0-3.783.898-6.835 2.695-9.156.93-1.098 2.168-1.937 3.717-2.518a13.432 13.432 0 0 1 4.74-.87c2.972 0 5.728.778 8.269 2.335 2.54 1.557 3.81 4.473 3.81 8.745v22.8h-3.16a3.062 3.062 0 0 1-2.23-.917c-.62-.61-.929-1.344-.929-2.197" id="Fill-3"/><path d="M72.025 7.43v14.284c0 4.335-1.147 7.174-3.437 8.515-2.294 1.343-4.803 2.015-7.527 2.015-2.664-.124-5.097-.855-7.295-2.198-2.2-1.342-3.298-4.12-3.298-8.332V7.43h6.504v15.565c0 1.465.433 2.533 1.301 3.205a4.722 4.722 0 0 0 2.973 1.007 4.918 4.918 0 0 0 3.02-1.007c.898-.672 1.348-1.74 1.348-3.205V10.543c0-.854.292-1.586.882-2.197.589-.61 1.348-.915 2.277-.915h3.252z" id="Fill-5"/><path d="M74.823 7.43h3.345c.866 0 1.61.307 2.23.916.618.611.929 1.343.929 2.197v21.243h-6.504V7.43zm0-7.142h3.345c.866 0 1.61.306 2.23.916.618.61.929 1.344.929 2.198v1.922h-6.504V.288z" id="Fill-7" transform="matrix(-1 0 0 1 156.15 0)"/><path d="M84.847 31.786V19.975c0-2.382.357-4.38 1.069-5.999.711-1.616 1.688-2.913 2.927-3.89 1.176-.916 2.555-1.587 4.136-2.015a18.638 18.638 0 0 1 4.878-.64h.929v6.5h-2.137c-1.798 0-3.13.428-3.996 1.282-.869.856-1.301 2.198-1.301 4.029v12.544h-6.505z" id="Fill-10"/><path d="M100.521 31.786V19.975c0-2.382.356-4.38 1.068-5.999.712-1.616 1.688-2.913 2.928-3.89 1.176-.916 2.555-1.587 4.135-2.015a18.638 18.638 0 0 1 4.878-.64h.929v6.5h-2.137c-1.797 0-3.13.428-3.995 1.282-.87.856-1.301 2.198-1.301 4.029v12.544h-6.505z" id="Fill-12"/><path d="M122.698 17.136h9.479c-.126-1.649-.558-2.869-1.301-3.663-.807-.853-1.952-1.281-3.44-1.281-1.362 0-2.477.428-3.344 1.281-.867.855-1.332 2.076-1.394 3.663m11.15 7.141h4.647c-.682 2.564-1.983 4.519-3.902 5.86-1.922 1.405-4.338 2.107-7.249 2.107-3.53 0-6.288-1.129-8.27-3.389-1.983-2.197-2.973-5.34-2.973-9.43 0-3.906.96-6.958 2.88-9.157 1.982-2.258 4.74-3.387 8.27-3.387 3.718 0 6.598 1.098 8.642 3.296 1.982 2.26 2.973 5.402 2.973 9.431v1.007c0 .306-.032.52-.093.642h-16.075c.062 1.892.527 3.295 1.394 4.21.804.978 2.012 1.466 3.624 1.466 1.053 0 1.952-.213 2.695-.642.186-.059.356-.166.511-.32l.51-.503c.062-.184.294-.426.698-.732.402-.305.975-.459 1.719-.459" id="Fill-14"/><path d="M141.243.288h3.345c.867 0 1.61.29 2.23.87.62.581.93 1.298.93 2.152v28.476h-6.505V.288z" id="Fill-16"/></g><path d="M34.28 3.752l-9.136.466C-4.135 5.802.23 30.015.23 30.015l34.085-15.91-.036-10.353z" id="Fill-19" fill="#875831"/><path d="M34.085 16.57L0 32.48l.034 10.354 9.137-.467c29.278-1.583 24.914-25.796 24.914-25.796" id="Fill-21" fill="#FD7E45"/></g></g></g></g></svg>